<svg xmlns="http://www.w3.org/2000/svg" width="111" height="37" fill="none" viewBox="0 0 111 37">
    <path fill="#332c22" d="m19.041 23.275-.114-.222c-.43-.826-1.468-1.363-2.389-1.236-.791.109-1.45.767-1.682 1.695-.25 1.001-.07 1.967.291 2.905.588 1.53 1.518 2.84 2.664 3.998.792.801 1.424.788 2.204-.027 1.083-1.132 1.962-2.403 2.572-3.85.36-.854.624-1.733.664-2.666.03-.673-.058-1.322-.441-1.9-.487-.735-1.288-.952-2.076-.564-.49.241-.878.601-1.184 1.048-.175.256-.328.527-.509.82m15.253 4.303a7.9 7.9 0 0 1-.884 3.58c-.986 1.896-2.412 3.365-4.322 4.35-1.883.97-3.812 1.082-5.784.309-.8-.314-1.598-.638-2.378-.998-1.418-.653-2.83-.647-4.28-.104-1.018.381-2.05.73-3.095 1.031a8.4 8.4 0 0 1-3.323.299c-.975-.112-1.8-.544-2.513-1.198-.91-.833-1.64-1.807-2.099-2.955-.59-1.471-.448-2.89.41-4.231.672-1.05 1.579-1.887 2.457-2.754a35 35 0 0 0 1.852-1.953c.679-.78 1.084-1.722 1.42-2.69.312-.898.595-1.806.902-2.706.223-.65.63-1.19 1.034-1.738.97-1.32 2.355-1.896 3.883-2.236 1.812-.403 3.391.117 4.738 1.309.83.733 1.547 1.592 2.319 2.39 1.314 1.36 2.709 2.63 4.27 3.704.778.534 1.594 1.013 2.365 1.555 1.104.777 2.035 1.72 2.603 2.97.297.655.415 1.35.425 2.066M16.504 8.866c.003 1.01-.176 2.1-.655 3.126-.512 1.096-1.254 1.963-2.472 2.3-1.003.278-1.93.054-2.792-.485-1.136-.71-1.904-1.738-2.475-2.922a10.2 10.2 0 0 1-.979-5.437c.1-1.123.418-2.172 1.045-3.127 1.082-1.645 3.026-2.11 4.716-1.11 1.097.65 1.865 1.6 2.45 2.708.795 1.51 1.175 3.125 1.162 4.947M28.308 5.856c.002 2.058-.378 3.785-1.314 5.365-.524.884-1.193 1.636-2.12 2.12-1.352.707-2.842.448-3.904-.658-.841-.875-1.297-1.94-1.542-3.107-.422-2.016-.204-3.985.51-5.9.345-.927.85-1.776 1.576-2.46.668-.63 1.43-1.125 2.379-1.204 1.207-.1 2.155.412 2.913 1.316.781.933 1.171 2.038 1.365 3.218.084.509.109 1.027.137 1.31M0 15.778c.017-.92.192-1.783.739-2.533.714-.98 1.714-1.341 2.895-1.267 1.195.074 2.213.59 3.126 1.32 1.627 1.297 2.703 2.953 3.132 5.002.19.907.203 1.822-.114 2.705-.545 1.519-1.79 2.303-3.41 2.177-1.009-.078-1.897-.481-2.711-1.055C1.9 20.889.77 19.207.197 17.15.076 16.71.064 16.236 0 15.778M36.943 12.91c-.272 2.856-1.434 5.063-3.686 6.653a4.34 4.34 0 0 1-2.098.774c-1.3.132-2.481-.6-2.97-1.851-.429-1.1-.404-2.227-.134-3.347.52-2.157 1.68-3.899 3.501-5.176.806-.565 1.722-.796 2.705-.714 1.144.095 2.111.953 2.445 2.215.136.51.174 1.046.237 1.447M90.499 22.38h2.628l-3.465 4.194 3.77 4.553h-2.706L87.15 26.69v4.436h-2.386V22.38h2.386v4.248zM83.115 26.738q0 1.095-.297 1.94a3.8 3.8 0 0 1-.853 1.432q-.555.579-1.346.876-.781.297-1.768.297a4.7 4.7 0 0 1-1.697-.297 3.8 3.8 0 0 1-1.338-.876 4.1 4.1 0 0 1-.876-1.432q-.305-.845-.305-1.94 0-1.455.516-2.464a3.54 3.54 0 0 1 1.47-1.533q.955-.525 2.277-.524 1.228 0 2.175.524.954.524 1.494 1.533.548 1.01.548 2.464m-6.047 0q0 .86.187 1.447.189.588.587.884.4.298 1.04.298.635 0 1.025-.298.4-.296.58-.884.186-.585.187-1.447 0-.868-.188-1.44-.18-.578-.579-.868-.398-.289-1.04-.289-.947 0-1.377.65-.422.648-.422 1.947M72.983 22.38v8.747H70.59v-6.955h-3.168v6.955h-2.386V22.38zM59.253 22.2q1.76 0 2.699.768.939.766.939 2.33v5.829h-1.666l-.462-1.19H60.7q-.376.471-.766.767a2.6 2.6 0 0 1-.9.438q-.508.141-1.236.141-.774 0-1.392-.297a2.2 2.2 0 0 1-.963-.908q-.351-.618-.352-1.564 0-1.392.978-2.05.978-.664 2.934-.735l1.517-.047V25.3q0-.69-.36-1.01t-1-.32q-.635 0-1.245.18a10 10 0 0 0-1.22.453l-.79-1.611a6.8 6.8 0 0 1 1.557-.579 7.6 7.6 0 0 1 1.791-.211m1.267 4.875-.923.03q-1.158.033-1.611.415-.446.384-.446 1.01 0 .547.32.782.32.227.838.227.766 0 1.29-.454.532-.455.532-1.29zM53.292 31.127h-2.417v-9.419h-2.8l-.204 1.604q-.11.869-.227 1.752-.118.884-.25 1.682-.126.798-.25 1.4-.204 1.002-.556 1.706-.344.696-.947 1.064-.594.367-1.556.367a4 4 0 0 1-1.158-.172v-1.987q.203.07.407.117.203.04.445.04a.7.7 0 0 0 .517-.204q.21-.21.375-.712.165-.508.329-1.4.07-.39.188-1.103.117-.72.266-1.682.148-.97.305-2.112.164-1.142.313-2.378h7.22zM107.029 7.554q1.761 0 2.699.766.939.767.939 2.331v5.828h-1.666l-.462-1.189h-.062a4.5 4.5 0 0 1-.767.767 2.6 2.6 0 0 1-.9.438q-.508.14-1.236.14-.774 0-1.392-.296a2.2 2.2 0 0 1-.962-.908q-.352-.618-.352-1.564 0-1.393.978-2.05.977-.665 2.933-.735l1.518-.047v-.384q0-.688-.36-1.009t-1.001-.32q-.634 0-1.244.18a10 10 0 0 0-1.221.453l-.79-1.611a6.8 6.8 0 0 1 1.557-.58 7.6 7.6 0 0 1 1.791-.21m1.268 4.873-.923.031q-1.158.032-1.612.415-.446.384-.446 1.01 0 .546.321.782.321.226.837.226.766 0 1.291-.453.531-.454.532-1.291zM99.581 7.733h2.629l-3.466 4.194 3.771 4.552h-2.707l-3.575-4.435v4.435h-2.386V7.733h2.386v4.248zM85.947 7.733v3.364h3.332V7.733h2.386v8.746H89.28v-3.606h-3.332v3.606H83.56V7.733zM74.642 7.733v3.458q0 .266-.024.673-.015.399-.047.813a38 38 0 0 1-.11 1.19l4.037-6.134h2.871v8.746h-2.307V12.99q0-.43.031-.946.03-.524.07-.986t.055-.696l-4.02 6.117h-2.864V7.733zM71.02 9.525h-2.863v6.954H65.77V9.525H62.9V7.733h8.12zM58.003 7.554q1.76 0 2.699.766.938.767.938 2.331v5.828h-1.666l-.462-1.189h-.062q-.375.47-.767.767-.39.297-.9.438-.507.14-1.236.14-.774 0-1.392-.296a2.2 2.2 0 0 1-.962-.908q-.352-.618-.352-1.564 0-1.393.978-2.05.978-.665 2.933-.735l1.518-.047v-.384q0-.688-.36-1.009t-1.001-.32q-.634 0-1.244.18t-1.22.453l-.79-1.611a6.8 6.8 0 0 1 1.556-.58 7.6 7.6 0 0 1 1.792-.21m1.267 4.873-.923.031q-1.159.032-1.612.415-.446.384-.446 1.01 0 .546.321.782.321.226.837.226.767 0 1.29-.453.533-.454.533-1.291zM53.488 16.48H50.72l-2.66-4.327-2.66 4.326h-2.597l3.794-5.898-3.551-5.539h2.675l2.464 4.115 2.418-4.115h2.613l-3.591 5.672z"/>
</svg>