<svg aria-hidden="true" style="position: absolute; width: 0; height: 0; overflow: hidden;" version="1.1" xmlns="http://www.w3.org/2000/svg" xmlns:xlink="http://www.w3.org/1999/xlink">
  <defs>
    <symbol id="icon-add" viewBox="0 0 32 32">
      <path d="M14.864 17.136h-7.261c-0.008 0-0.017 0-0.026 0-0.307 0-0.584-0.126-0.782-0.329l-0-0c-0.202-0.201-0.327-0.478-0.327-0.785 0-0.010 0-0.020 0-0.029l-0 0.001q0-0.483 0.327-0.805c0.2-0.2 0.477-0.324 0.783-0.324 0.009 0 0.018 0 0.027 0l-0.001-0h7.261v-7.261q0-0.48 0.329-0.811c0.199-0.206 0.478-0.334 0.786-0.334 0.009 0 0.019 0 0.028 0l-0.001-0c0.009-0 0.020-0 0.030-0 0.305 0 0.58 0.128 0.775 0.333l0 0c0.2 0.202 0.324 0.481 0.324 0.788 0 0.008-0 0.016-0 0.024l0-0.001v7.261h7.261c0.007-0 0.016-0 0.024-0 0.308 0 0.587 0.126 0.788 0.329l0 0c0.205 0.199 0.332 0.477 0.332 0.785 0 0.010-0 0.020-0 0.030l0-0.001c0 0.009 0 0.020 0 0.030 0 0.305-0.128 0.58-0.333 0.775l-0 0c-0.202 0.2-0.481 0.324-0.788 0.324-0.008 0-0.016-0-0.024-0l0.001 0h-7.261v7.261c0 0.008 0 0.017 0 0.026 0 0.307-0.126 0.584-0.329 0.782l-0 0c-0.201 0.202-0.478 0.327-0.785 0.327-0.010 0-0.020-0-0.029-0l0.001 0c-0.008 0-0.017 0-0.026 0-0.305 0-0.581-0.125-0.78-0.327l-0-0c-0.2-0.2-0.324-0.477-0.324-0.783 0-0.009 0-0.018 0-0.027l-0 0.001z"></path>
    </symbol>
    <symbol id="icon-arrow-back" viewBox="0 0 32 32">
      <path stroke-linejoin="miter" stroke-linecap="butt" stroke-miterlimit="4" stroke-width="1.3333" d="M16.011 6.249c0.113 0 0.212 0.035 0.321 0.144 0.089 0.083 0.144 0.201 0.144 0.331 0 0 0 0 0 0.001v-0c0 0.116-0.035 0.213-0.144 0.324l-8.481 8.481h17.88c0.161 0 0.263 0.048 0.347 0.133 0.080 0.078 0.13 0.187 0.13 0.307 0 0.010-0 0.020-0.001 0.030l0-0.001c0 0.16-0.045 0.256-0.128 0.337s-0.195 0.133-0.321 0.133c-0.010 0-0.019-0-0.029-0.001l0.001 0h-17.88l8.473 8.473c0.109 0.108 0.147 0.211 0.148 0.333v0.001c0 0.005 0 0.010 0 0.015 0 0.087-0.028 0.167-0.074 0.232l0.001-0.001-0.069 0.081c-0.076 0.088-0.188 0.143-0.313 0.143-0.004 0-0.007-0-0.011-0h0.001c-0.001 0-0.002 0-0.003 0-0.134 0-0.255-0.059-0.338-0.152l-0-0-9.264-9.263c-0.050-0.046-0.091-0.102-0.12-0.163l-0.001-0.003v-0.001c-0.019-0.045-0.031-0.098-0.031-0.154 0-0.004 0-0.008 0-0.012v0.001q0-0.093 0.031-0.163v-0.001c0.030-0.065 0.071-0.12 0.12-0.166l0-0 9.268-9.267c0.085-0.093 0.207-0.151 0.343-0.152h0z"></path>
    </symbol>
    <symbol id="icon-arrow-forward" viewBox="0 0 32 32">
      <path stroke-linejoin="miter" stroke-linecap="butt" stroke-miterlimit="4" stroke-width="1.3333" d="M15.993 6.253c0.095 0 0.177 0.023 0.26 0.080l0.081 0.071 9.264 9.264c0.050 0.046 0.091 0.102 0.12 0.163l0.001 0.003v0.001c0.020 0.046 0.032 0.1 0.032 0.157 0 0.003-0 0.006-0 0.009v-0c0 0.002 0 0.004 0 0.006 0 0.057-0.012 0.111-0.033 0.159l0.001-0.003v0.001c-0.030 0.065-0.071 0.12-0.12 0.166l-0 0-9.273 9.264c-0.121 0.12-0.227 0.156-0.337 0.156-0.107 0-0.204-0.033-0.315-0.147l-0.007-0.008-0.069-0.080c-0.047-0.065-0.075-0.145-0.075-0.233 0-0.004 0-0.008 0-0.012v0.001c0-0.087 0.019-0.163 0.075-0.243l0.069-0.080 8.481-8.481h-17.88c-0.163 0-0.259-0.048-0.34-0.128-0.083-0.081-0.128-0.179-0.128-0.341s0.045-0.26 0.127-0.341h0.001c0.080-0.080 0.177-0.127 0.34-0.128h17.88l-8.473-8.473c-0.070-0.064-0.12-0.148-0.141-0.244l-0.001-0.003-0.007-0.089c-0.001-0.12 0.033-0.219 0.14-0.325l0.001-0.001c0.076-0.088 0.188-0.143 0.313-0.143 0.004 0 0.008 0 0.012 0h-0.001z"></path>
    </symbol>
    <symbol id="icon-close" viewBox="0 0 32 32">
      <path stroke-linejoin="miter" stroke-linecap="butt" stroke-miterlimit="4" stroke-width="1.3333" d="M23.467 7.9c0.219 0 0.355 0.064 0.461 0.172 0.108 0.108 0.175 0.258 0.175 0.423 0 0.013-0 0.027-0.001 0.040l0-0.002c0.001 0.011 0.001 0.025 0.001 0.038 0 0.165-0.067 0.315-0.175 0.423l-7.005 7.005 7.005 7.005c0.107 0.107 0.173 0.243 0.173 0.461 0.001 0.011 0.001 0.025 0.001 0.038 0 0.165-0.067 0.315-0.175 0.423l0-0c-0.108 0.108-0.258 0.175-0.423 0.175-0.013 0-0.027-0-0.040-0.001l0.002 0c-0.012 0.001-0.026 0.001-0.040 0.001-0.165 0-0.315-0.067-0.423-0.175l-7.004-7.004-7.005 7.005c-0.108 0.106-0.257 0.172-0.421 0.172-0.015 0-0.029-0.001-0.044-0.002l0.002 0c-0.012 0.001-0.026 0.001-0.040 0.001-0.164 0-0.312-0.066-0.421-0.172l0 0c-0.108-0.108-0.175-0.258-0.175-0.423 0-0.014 0-0.028 0.001-0.041l-0 0.002c0-0.219 0.067-0.356 0.173-0.463l7.004-7.004-0.472-0.471-6.533-6.533c-0.106-0.108-0.172-0.257-0.172-0.421 0-0.015 0.001-0.029 0.002-0.044l-0 0.002c-0.001-0.012-0.001-0.026-0.001-0.040 0-0.164 0.066-0.313 0.173-0.422l-0 0c0.108-0.107 0.257-0.173 0.422-0.173 0.013 0 0.027 0 0.040 0.001l-0.002-0c0.22 0 0.356 0.064 0.463 0.172l7.005 7.004 7.004-7.004c0.108-0.107 0.257-0.173 0.422-0.173 0.014 0 0.029 0 0.043 0.002l-0.002-0z"></path>
    </symbol>
    <symbol id="icon-facebook" viewBox="0 0 32 32">
      <path d="M29.333 16.405c0-7.409-5.969-13.415-13.333-13.415s-13.333 6.005-13.333 13.413c0 6.697 4.876 12.247 11.251 13.253v-9.373h-3.387v-3.88h3.387v-2.955c0-3.361 1.989-5.219 5.036-5.219 1.459 0 2.984 0.261 2.984 0.261v3.301h-1.68c-1.657 0-2.173 1.035-2.173 2.096v2.516h3.697l-0.591 3.877h-3.107v9.373c6.373-1.005 11.249-6.555 11.249-13.251z"></path>
    </symbol>
    <symbol id="icon-instagram" viewBox="0 0 32 32">
      <path d="M15.999 6.16c3.205 0 3.585 0.016 4.845 0.072 1.173 0.052 1.804 0.248 2.227 0.413 0.557 0.215 0.96 0.477 1.377 0.893 0.423 0.423 0.68 0.821 0.9 1.379 0.164 0.423 0.36 1.060 0.413 2.227 0.056 1.267 0.069 1.645 0.069 4.847s-0.013 3.587-0.071 4.847c-0.051 1.173-0.248 1.804-0.412 2.227-0.203 0.54-0.508 1-0.894 1.377l-0.001 0.001c-0.423 0.423-0.821 0.68-1.379 0.9-0.421 0.164-1.059 0.36-2.227 0.413-1.265 0.056-1.644 0.069-4.845 0.069s-3.587-0.013-4.847-0.071c-1.173-0.051-1.805-0.248-2.227-0.412-0.54-0.203-1.001-0.508-1.378-0.895l-0.001-0.001c-0.389-0.377-0.695-0.837-0.891-1.352l-0.009-0.026c-0.164-0.421-0.36-1.059-0.413-2.227-0.055-1.265-0.069-1.644-0.069-4.847 0-3.2 0.013-3.584 0.071-4.845 0.052-1.173 0.248-1.805 0.413-2.227 0.215-0.559 0.477-0.96 0.893-1.379 0.378-0.389 0.838-0.696 1.353-0.891l0.026-0.009c0.423-0.164 1.060-0.36 2.227-0.413 1.261-0.055 1.64-0.069 4.847-0.069zM15.997 4.001c-3.257 0-3.665 0.015-4.945 0.071-1.275 0.057-2.151 0.263-2.911 0.559-0.833 0.318-1.542 0.79-2.126 1.386l-0.001 0.001c-0.596 0.584-1.068 1.292-1.373 2.084l-0.014 0.040c-0.296 0.764-0.503 1.635-0.56 2.909-0.052 1.284-0.068 1.692-0.068 4.949 0 3.259 0.013 3.665 0.071 4.945 0.056 1.275 0.263 2.152 0.557 2.911 0.318 0.833 0.79 1.542 1.386 2.126l0.001 0.001c0.584 0.595 1.293 1.065 2.084 1.369l0.040 0.014c0.764 0.296 1.636 0.503 2.911 0.559 1.28 0.056 1.687 0.071 4.944 0.071s3.667-0.013 4.947-0.071c1.273-0.056 2.151-0.263 2.909-0.559 0.831-0.318 1.539-0.788 2.122-1.382l0.001-0.001c0.665-0.667 1.079-1.335 1.383-2.123 0.296-0.764 0.501-1.635 0.559-2.911 0.056-1.28 0.071-1.687 0.071-4.944s-0.015-3.665-0.071-4.945c-0.057-1.275-0.263-2.151-0.559-2.911-0.305-0.838-0.774-1.551-1.372-2.132l-0.001-0.001c-0.584-0.594-1.292-1.064-2.082-1.368l-0.040-0.014c-0.764-0.296-1.635-0.503-2.911-0.559-1.284-0.061-1.691-0.076-4.948-0.076z"></path>
      <path d="M15.997 9.836c-3.337 0.088-6.008 2.814-6.008 6.163s2.671 6.076 6 6.163l0.008 0c3.365-0.051 6.073-2.791 6.073-6.163s-2.708-6.112-6.069-6.163l-0.005-0zM15.997 19.996c-2.208 0-3.997-1.79-3.997-3.997s1.79-3.997 3.997-3.997v0c2.208 0 3.998 1.79 3.998 3.998s-1.79 3.998-3.998 3.998v0zM23.841 9.592c0.001 0.018 0.001 0.040 0.001 0.062 0 0.795-0.645 1.44-1.44 1.44s-1.44-0.645-1.44-1.44c0-0.022 0-0.043 0.001-0.065l-0 0.003c0.034-0.768 0.665-1.378 1.439-1.378s1.405 0.61 1.439 1.375l0 0.003z"></path>
    </symbol>
    <symbol id="icon-menu" viewBox="0 0 32 32">
      <path d="M4.936 24.295c-0.008 0-0.017 0-0.026 0-0.307 0-0.584-0.126-0.782-0.329l-0-0c-0.202-0.203-0.327-0.482-0.327-0.791 0-0.010 0-0.020 0-0.031l-0 0.002q0-0.483 0.327-0.807c0.2-0.2 0.476-0.323 0.781-0.323 0.009 0 0.019 0 0.028 0l-0.001-0h22.128q0.48 0 0.813 0.329c0.204 0.201 0.331 0.48 0.331 0.789 0 0.008-0 0.016-0 0.024l0-0.001q0 0.493-0.332 0.813c-0.202 0.2-0.481 0.324-0.788 0.324-0.009 0-0.018-0-0.026-0l0.001 0zM4.936 17.135c-0.008 0-0.017 0-0.027 0-0.306 0-0.582-0.126-0.781-0.328l-0-0c-0.202-0.201-0.327-0.478-0.327-0.785 0-0.010 0-0.020 0-0.029l-0 0.001q0-0.483 0.327-0.805c0.2-0.2 0.477-0.324 0.783-0.324 0.009 0 0.018 0 0.027 0l-0.001-0h22.128q0.48 0 0.813 0.329c0.204 0.201 0.331 0.48 0.331 0.789 0 0.008-0 0.017-0 0.025l0-0.001c0 0.003 0 0.006 0 0.010 0 0.619-0.501 1.12-1.12 1.12-0.008 0-0.017-0-0.025-0l0.001 0zM4.936 9.984c-0.008 0-0.017 0-0.026 0-0.307 0-0.584-0.126-0.782-0.329l-0-0c-0.202-0.203-0.327-0.482-0.327-0.791 0-0.010 0-0.020 0-0.031l-0 0.002q0-0.483 0.327-0.807c0.2-0.2 0.476-0.323 0.781-0.323 0.009 0 0.019 0 0.028 0l-0.001-0h22.128q0.48 0 0.813 0.329c0.204 0.201 0.331 0.48 0.331 0.789 0 0.008-0 0.016-0 0.024l0-0.001q0 0.492-0.332 0.813c-0.202 0.2-0.481 0.324-0.788 0.324-0.009 0-0.018-0-0.026-0l0.001 0z"></path>
    </symbol>
    <symbol id="icon-star-filled" viewBox="0 0 32 32">
      <path d="M14.76 4.816c0.46-1.088 2.020-1.088 2.48 0l2.704 6.427c0.193 0.457 0.631 0.772 1.132 0.811l7.021 0.556c1.189 0.095 1.672 1.561 0.765 2.328l-5.349 4.529c-0.287 0.244-0.468 0.605-0.468 1.008 0 0.108 0.013 0.214 0.038 0.314l-0.002-0.009 1.633 6.769c0.277 1.147-0.987 2.053-2.004 1.44l-6.012-3.628c-0.199-0.121-0.441-0.193-0.699-0.193s-0.499 0.072-0.705 0.197l0.006-0.003-6.012 3.627c-1.019 0.615-2.281-0.292-2.004-1.439l1.633-6.769c0.023-0.092 0.036-0.197 0.036-0.305 0-0.403-0.181-0.764-0.466-1.006l-0.002-0.002-5.349-4.528c-0.907-0.767-0.424-2.233 0.765-2.328l7.021-0.556c0.503-0.040 0.939-0.353 1.133-0.812z"></path>
    </symbol>
    <symbol id="icon-star-outline" viewBox="0 0 32 32">
      <path stroke-linejoin="miter" stroke-linecap="butt" stroke-miterlimit="4" stroke-width="2.6667" d="M16.011 5.335l2.704 6.424c0.391 0.903 1.239 1.541 2.245 1.623l0.010 0.001 7.011 0.555-5.328 4.509c-0.577 0.49-0.94 1.215-0.94 2.026 0 0.22 0.027 0.433 0.077 0.638l-0.004-0.018 1.631 6.755q-0.004 0-0.005 0.004l-0.011-0.005-6.012-3.627c-0.396-0.242-0.875-0.385-1.388-0.385s-0.992 0.143-1.4 0.392l0.012-0.007-6.023 3.632-0.007-0.004 1.632-6.755c0.047-0.186 0.073-0.4 0.073-0.62 0-0.745-0.307-1.418-0.801-1.9l-0.001-0.001-0.137-0.125-5.331-4.509 7.011-0.555c1.017-0.079 1.867-0.718 2.249-1.605l0.007-0.017 2.703-6.424 0.012-0.003z"></path>
    </symbol>
  </defs>
</svg>